<?xml version="1.0" encoding="UTF-8" standalone="no"?>
<!-- Created with Inkscape (http://www.inkscape.org/) -->

<svg
   xmlns:dc="http://purl.org/dc/elements/1.1/"
   xmlns:cc="http://creativecommons.org/ns#"
   xmlns:rdf="http://www.w3.org/1999/02/22-rdf-syntax-ns#"
   xmlns:svg="http://www.w3.org/2000/svg"
   xmlns="http://www.w3.org/2000/svg"
   xmlns:sodipodi="http://sodipodi.sourceforge.net/DTD/sodipodi-0.dtd"
   xmlns:inkscape="http://www.inkscape.org/namespaces/inkscape"
   version="1.1"
   id="svg2"
   width="648.26965"
   height="302.14035"
   viewBox="0 0 648.26965 302.14035"
   sodipodi:docname="logo.svg"
   inkscape:version="0.92.2 (5c3e80d, 2017-08-06)">
  <metadata
     id="metadata8">
    <rdf:RDF>
      <cc:Work
         rdf:about="">
        <dc:format>image/svg+xml</dc:format>
        <dc:type
           rdf:resource="http://purl.org/dc/dcmitype/StillImage" />
        <dc:title></dc:title>
      </cc:Work>
    </rdf:RDF>
  </metadata>
  <defs
     id="defs6" />
  <sodipodi:namedview
     pagecolor="#ffffff"
     bordercolor="#666666"
     borderopacity="1"
     objecttolerance="10"
     gridtolerance="10"
     guidetolerance="10"
     inkscape:pageopacity="0"
     inkscape:pageshadow="2"
     inkscape:window-width="640"
     inkscape:window-height="480"
     id="namedview4"
     showgrid="false"
     fit-margin-top="0"
     fit-margin-left="0"
     fit-margin-right="0"
     fit-margin-bottom="0"
     inkscape:zoom="0.58617583"
     inkscape:cx="322.42886"
     inkscape:cy="149.38845"
     inkscape:window-x="0"
     inkscape:window-y="0"
     inkscape:window-maximized="0"
     inkscape:current-layer="svg2" />
  <path
     style="fill:#242424;stroke-width:1.07865167"
     d="m 324.27114,298.0538 c -4.86354,-10.34683 -45.18207,-86.60855 -45.81021,-86.64916 -0.38947,-0.0251 -9.6879,9.19015 -20.66318,20.4785 L 237.84269,252.4074 120.01192,251.41566 C 55.204993,250.8702 1.69039,250.12061 1.09057,249.74991 0.37449,249.30735 0,226.03482 0,181.97657 v -67.09933 l 12.13483,-4.5137 C 18.80899,107.881 88.753026,82.033622 167.56602,52.924915 L 310.86237,0 352.01546,14.167094 c 22.63419,7.791903 47.22049,16.257813 54.63622,18.813135 7.41573,2.555321 30.59326,10.488596 51.50561,17.6295 L 496.17977,63.59319 V 43.679107 23.765024 h 21.57303 21.57303 v 27.270372 27.270366 l 8.35955,2.84207 c 4.59776,1.56313 28.4489,9.66396 53.00254,18.00183 24.55365,8.337868 44.89972,15.416488 45.21349,15.730268 0.31376,0.31377 -39.9194,0.53216 -89.40704,0.48533 -49.48764,-0.0468 -89.49213,-0.28437 -88.89887,-0.52785 0.59325,-0.24349 18.03798,-3.85662 38.76604,-8.0292 20.72806,-4.17257 37.84733,-7.746448 38.04282,-7.941948 0.79036,-0.79036 -21.59809,-10.16062 -121.51711,-50.858707 C 365.39114,24.58877 317.24783,5.427946 315.90213,5.427946 c -1.3457,0 -11.93599,3.448479 -23.53397,7.663285 -27.01681,9.81813 -255.50358,94.298059 -279.694,103.413099 l -6.20225,2.33704 v 60.32699 60.32699 H 119.9912 233.51049 l 23.96833,-23.95057 c 13.18258,-13.17282 24.20405,-23.71486 24.49216,-23.42676 0.2881,0.28811 10.80137,20.16699 23.36282,44.17529 12.56145,24.00832 23.21822,44.06554 23.68173,44.57163 0.4635,0.50607 10.02199,-8.35236 21.2411,-19.6854 L 370.655,240.57401 h 138.80733 138.80732 v 5.21995 5.21995 l -29.29884,0.71263 c -16.11436,0.39195 -77.39147,0.71263 -136.17134,0.71263 H 375.92696 l -24.86747,24.85059 -24.86746,24.85058 z M 451.95505,197.42794 v -40.98876 h 7.01123 7.01124 v 3.77528 c 0,4.47055 0.90813,4.70468 4.28911,1.1058 3.50352,-3.72934 10.95241,-6.36963 16.04366,-5.68675 14.38363,1.92925 22.70962,14.80895 21.45029,33.18208 -1.71446,25.01346 -19.9163,35.47299 -38.27744,21.9958 l -2.42697,-1.78141 v 14.69336 14.69336 h -7.55056 -7.55056 z m 34.06455,5.24094 c 8.32651,-4.06389 9.18758,-25.05976 1.29993,-31.69678 -5.47372,-4.60582 -15.11792,-2.86264 -17.89605,3.23469 -1.80097,3.95269 -1.65415,19.38555 0.21889,23.0076 3.66218,7.08189 9.23798,8.93893 16.37723,5.45449 z M 43.871276,215.37141 C 36.63701,213.32542 30.37323,208.62835 25.63893,201.69936 c -5.62889,-8.23829 -7.69597,-17.17745 -7.05416,-30.50596 0.46605,-9.67849 0.87419,-11.30955 4.71553,-18.84449 7.16272,-14.04997 16.373,-19.14812 34.407567,-19.04552 8.310548,0.0472 10.593199,0.48201 15.858726,3.02032 7.707784,3.71562 15.059614,11.73351 18.245019,19.89798 1.961663,5.02791 2.41281,8.41344 2.472534,18.55457 0.06293,10.68536 -0.285869,13.30143 -2.516771,18.8764 -3.296002,8.23664 -13.780475,19.15764 -20.098689,20.93552 -7.118094,2.00296 -22.001847,2.42233 -27.79741,0.78323 z M 64.484085,201.146 c 9.276214,-3.8749 13.4725,-12.07021 13.449309,-26.2664 -0.01819,-11.13261 -1.788495,-16.97629 -6.600696,-21.78849 -7.688703,-7.68871 -19.955158,-8.26667 -28.20043,-1.32873 -5.118828,4.30721 -7.689438,10.40005 -8.329838,19.74326 -0.9934,14.49337 3.72814,25.00696 13.152948,29.28806 5.362919,2.43603 11.2405,2.56131 16.528707,0.3523 z m 276.727935,14.72538 c -20.56175,-5.27331 -30.90517,-30.50268 -23.42332,-57.13344 2.89104,-10.29034 9.80515,-18.66385 18.75062,-22.70843 3.80218,-1.71911 7.14022,-2.19977 15.40543,-2.21833 11.22343,-0.0252 15.69307,1.17164 21.81572,5.84162 3.34499,2.55134 10.98721,15.3196 9.84997,16.45684 -0.32841,0.32839 -3.63307,1.29846 -7.34371,2.15571 l -6.74662,1.55862 -2.16846,-3.04071 c -5.33656,-7.48318 -9.88334,-10.05195 -17.79216,-10.05195 -3.92504,0 -12.52919,5.62961 -14.53631,9.51095 -2.74678,5.31166 -4.01485,16.4293 -2.82824,24.79602 1.8437,12.99973 4.42903,17.16505 12.58803,20.28099 7.23783,2.76416 12.93144,1.55519 17.93423,-3.80807 2.23947,-2.40082 4.37485,-5.88066 4.74531,-7.73296 0.61624,-3.08117 0.96369,-3.32075 4.08219,-2.81468 6.4073,1.03976 11.37664,3.72073 11.37664,6.1377 0,6.52343 -8.43378,17.06066 -16.44158,20.54223 -6.13306,2.66647 -19.09969,3.80977 -25.26774,2.22789 z m 196.28522,-0.2083 c -5.66777,-1.35308 -15.00601,-9.52653 -17.72662,-15.51551 -3.02873,-6.66727 -2.76253,-21.0337 0.52008,-28.06794 9.03439,-19.35959 36.5912,-22.39181 49.41252,-5.43712 5.04875,6.67638 6.72156,12.71997 6.06411,21.90868 -0.77174,10.78604 -5.88,19.6227 -14.14255,24.46488 -5.33435,3.12613 -16.83531,4.3879 -24.12754,2.64701 z m 14.31491,-12.72874 c 10.38611,-4.71717 12.14944,-23.35136 2.97221,-31.40908 -9.41525,-8.2667 -21.93044,-0.0933 -21.93044,14.32231 0,7.25922 2.21809,12.87744 6.17917,15.65129 5.63278,3.94451 6.93317,4.09058 12.77906,1.43548 z M 107.86517,174.74369 v -41.29291 l 23.25796,0.64387 c 20.6024,0.57036 23.79078,0.90181 27.92453,2.90292 11.93441,5.77735 14.55771,21.07996 5.35914,31.26168 l -3.74678,4.14724 3.84084,2.37377 c 6.15027,3.80108 9.16206,9.14784 9.16206,16.2652 0,7.78076 -1.61378,12.50223 -5.80758,16.99136 -6.32143,6.76659 -7.36741,6.99189 -34.91152,7.51944 l -25.07865,0.48033 z m 47.13343,23.29587 c 2.29734,-2.67147 2.63497,-3.92347 2.17015,-8.04733 -0.91201,-8.09142 -3.91308,-9.31443 -24.76426,-10.09216 l -8.35955,-0.31181 v 11.18547 11.18546 l 14.11653,-0.37799 c 14.08075,-0.37702 14.12341,-0.38599 16.83713,-3.54164 z m -4.80752,-33.14558 c 1.03206,-0.5325 2.64783,-2.45983 3.59059,-4.28294 1.41783,-2.74176 1.48729,-3.86239 0.40185,-6.48289 -2.28231,-5.50996 -4.58155,-6.31818 -17.9741,-6.31818 h -12.16448 v 9.76581 9.7658 l 12.13483,-0.7397 c 6.67416,-0.40684 12.97925,-1.1754 14.01131,-1.7079 z m 37.49431,9.88228 v -40.98877 h 8.08989 8.08988 v 17.25843 c 0,14.94378 0.22651,17.25843 1.68889,17.25843 3.95224,0 6.3585,-2.94129 11.77093,-14.38814 7.77919,-16.45237 12.16556,-20.12872 24.01621,-20.12872 h 4.59139 v 5.93259 5.93258 h -3.71514 c -5.3156,0 -8.74736,3.53185 -12.54038,12.90615 -1.79194,4.42873 -4.46473,9.63424 -5.93954,11.56781 l -2.68146,3.51558 4.21605,3.80895 c 4.5255,4.08852 19.58182,31.79987 19.58182,36.04059 0,2.11717 -0.57637,2.27328 -8.39316,2.27328 h -8.39318 l -5.82097,-12.50894 c -3.20155,-6.87992 -7.22139,-14.62317 -8.93301,-17.20725 -3.36228,-5.07612 -6.96578,-7.04874 -8.48794,-4.64643 -0.51011,0.80505 -0.93491,8.86599 -0.94399,17.91318 l -0.0165,16.44944 h -8.08988 -8.08989 z m 222.20224,17.79775 V 169.383 h -7.46234 c -10.51606,0 -10.87474,-0.23505 -10.87474,-7.12664 v -5.81718 h 25.88764 25.88764 v 5.88896 5.88896 l -8.89887,0.31329 -8.89888,0.31328 -0.2907,23.46068 -0.29069,23.46067 h -7.52953 -7.52953 z m 178.22986,-6.20225 0.28699,-29.39326 7.2809,-0.31894 7.2809,-0.31895 v 17.9925 c 0,21.06365 -1.38814,21.2691 13.40378,-1.98382 8.85925,-13.92675 9.6429,-14.83218 12.84694,-14.84334 1.87672,-0.006 5.23243,-0.31273 7.45714,-0.68045 l 4.04495,-0.66858 v 29.80405 29.80405 h -6.98577 -6.98576 l -0.29514,-18.60674 -0.29513,-18.60674 -11.741,18.60674 -11.74101,18.60674 h -7.42239 -7.4224 z m 22.36534,-38.55643 c -1.50185,-0.42427 -3.84783,-1.44848 -5.21329,-2.27602 -2.61169,-1.58282 -6.61787,-8.34438 -6.61787,-11.16952 0,-2.21379 4.87515,-2.1888 6.69905,0.0343 4.38045,5.33932 5.25856,5.85527 9.96516,5.85527 4.2302,0 5.14534,-0.45403 7.72071,-3.83051 2.23361,-2.92841 3.58017,-3.754 5.71781,-3.50562 2.25279,0.26176 2.73943,0.83477 2.50431,2.94878 -0.37315,3.35494 -5.15901,9.65962 -8.17371,10.76768 -3.92783,1.44369 -9.73537,1.98544 -12.60217,1.17559 z"
     id="path12"
     inkscape:connector-curvature="0" />
</svg>
